<?xml version="1.0" standalone="no"?><!DOCTYPE svg PUBLIC "-//W3C//DTD SVG 1.1//EN" "http://www.w3.org/Graphics/SVG/1.1/DTD/svg11.dtd"><svg t="1538390738143" class="icon" style="" viewBox="0 0 1024 1024" version="1.1" xmlns="http://www.w3.org/2000/svg" p-id="1462" xmlns:xlink="http://www.w3.org/1999/xlink" width="200" height="200"><defs><style type="text/css"></style></defs><path d="M924.836001 334.88821c-22.649859-53.535287-55.067176-101.618399-96.350418-142.900617-41.288358-41.288358-89.370447-73.701582-142.915967-96.345302C630.135072 72.193229 571.254034 60.303434 510.55765 60.303434c-60.720943 0-119.599935 11.889795-175.042665 35.337833-53.53938 22.64372-101.624539 55.057967-142.91085 96.345302-41.288358 41.283242-73.703629 89.360214-96.350418 142.900617-23.445992 55.438637-35.337833 114.320699-35.337833 175.011966 0 60.678988 11.889795 119.555933 35.337833 174.990476 22.646789 53.53938 55.063083 101.617375 96.350418 142.905734 41.286312 41.288358 89.3684 73.699536 142.91085 96.349395 55.43966 23.442922 114.321722 35.332716 175.042665 35.332716 60.696384 0 119.577423-11.889795 175.011966-35.332716 53.54552-22.649859 101.627608-55.06206 142.915967-96.349395 41.283242-41.289382 73.700559-89.361237 96.350418-142.905734 23.442922-55.434543 35.332716-114.316605 35.332716-174.990476C960.169741 449.203792 948.284039 390.326846 924.836001 334.88821zM510.55765 933.720857c-233.743602 0-423.883103-190.129268-423.883103-423.825798 0-233.703693 190.141548-423.831938 423.883103-423.831938 233.719042 0 423.856497 190.128245 423.856497 423.831938C934.414147 743.591589 744.270553 933.720857 510.55765 933.720857z" p-id="1463"></path><path d="M633.199874 417.885506c-103.510492 0-185.046506 71.222111-185.046506 158.578692 0 87.516216 81.534991 158.584831 185.046506 158.584831 21.665439 0 43.521213-5.491061 65.278749-10.967796l59.676148 32.821523-16.362666-54.609759c43.677778-32.909527 76.208683-76.549443 76.208683-125.8288C818.000787 489.101477 730.961432 417.885506 633.199874 417.885506zM573.205479 549.117362c-10.829649 0-21.759583-10.825556-21.759583-21.858844 0-10.886955 10.923794-21.85782 21.759583-21.85782 16.45374 0 27.230178 10.970866 27.235294 21.85782C600.441796 538.290783 589.664336 549.117362 573.205479 549.117362zM692.878069 549.117362c-10.758018 0-21.611204-10.825556-21.611204-21.858844 0-10.886955 10.853186-21.85782 21.611204-21.85782 16.307408 0 27.230178 10.970866 27.235294 21.85782C720.113363 538.290783 709.184453 549.117362 692.878069 549.117362z" p-id="1464"></path><path d="M619.43436 406.136927c7.051603 0 14.030551 0.515746 20.952194 1.290389-18.828834-88.041172-112.546286-153.463184-219.522716-153.463184-119.595842 0-217.562061 81.882915-217.562061 185.856965 0 60.016909 32.592302 109.289102 87.060845 147.522891l-21.763676 65.738213 76.057233-38.309514c27.217898 5.408173 49.049113 10.970866 76.207659 10.970866 6.830569 0 13.596669-0.338714 20.313651-0.868787-4.254907-14.610766-6.716982-29.918403-6.716982-45.794999C434.459484 483.620649 516.08862 406.14102 619.43436 406.136927zM502.453065 346.892615c16.382109 0 27.236318 10.818393 27.236318 27.269064 0 16.380062-10.854209 27.356045-27.236318 27.356045-16.308431 0-32.674167-10.975982-32.674167-27.356045C469.778898 357.716124 486.144634 346.892615 502.453065 346.892615zM350.183056 401.518746c-16.304338 0-32.763195-10.975982-32.763195-27.356045 0-16.445554 16.458857-27.269064 32.763195-27.269064 16.307408 0 27.160593 10.818393 27.160593 27.269064C377.342626 390.542764 366.490463 401.518746 350.183056 401.518746z" p-id="1465"></path></svg>