<?xml version="1.0" standalone="no"?><!DOCTYPE svg PUBLIC "-//W3C//DTD SVG 1.1//EN" "http://www.w3.org/Graphics/SVG/1.1/DTD/svg11.dtd"><svg t="1538658817245" class="icon" style="" viewBox="0 0 1024 1024" version="1.1" xmlns="http://www.w3.org/2000/svg" p-id="2045" xmlns:xlink="http://www.w3.org/1999/xlink" width="16" height="16"><defs><style type="text/css"></style></defs><path d="M528.417 736.198c-132.426 0-239.781-107.355-239.781-239.781S395.99 256.635 528.417 256.635 768.198 363.99 768.198 496.417 660.843 736.198 528.417 736.198zM528.417 288.606c-114.769 0-207.81 93.042-207.81 207.81s93.042 207.81 207.81 207.81 207.81-93.042 207.81-207.81S643.186 288.606 528.417 288.606zM562.558 507.913c-17.172 13.159-25.356 29.573-24.531 49.289 0 5.633 0 9.857 0 12.673l-25.756 0c0-4.687 0-9.374 0-14.083-0.825-26.274 9.812-48.34 31.888-66.186 25.337-19.713 36.798-40.84 34.343-63.369-3.277-27.22-17.993-42.246-44.155-45.063-33.537-1.87-53.564 17.383-60.099 57.736l-25.759-9.857c10.618-51.62 40.053-76.506 88.313-74.636 43.33 2.817 66.634 27.239 69.911 73.226C608.344 456.754 593.624 483.51 562.558 507.913zM544.402 640.285l-31.971 0 0-31.971 31.971 0L544.402 640.285z" p-id="2046"></path></svg>