<?xml version="1.0" standalone="no"?><!DOCTYPE svg PUBLIC "-//W3C//DTD SVG 1.1//EN" "http://www.w3.org/Graphics/SVG/1.1/DTD/svg11.dtd"><svg t="1538581885492" class="icon" style="" viewBox="0 0 1024 1024" version="1.1" xmlns="http://www.w3.org/2000/svg" p-id="973" xmlns:xlink="http://www.w3.org/1999/xlink" width="32" height="32"><defs><style type="text/css"></style></defs><path d="M914.142549 670.080299C929.496917 653.467392 954.321024 653.39136 969.828523 670.169899 985.228629 686.832256 985.080277 714.007851 969.911339 730.420053L723.570347 996.951936C723.230507 997.319637 700.655061 1024 682.666667 1024 659.102507 1024 640 1004.907989 640 981.30368L640 42.69632C640 19.115776 658.93824 0 682.666667 0 706.230827 0 725.333333 19.092011 725.333333 42.69632L725.333333 874.364928 914.142549 670.080299 914.142549 670.080299 914.142549 670.080299ZM298.666667 152.667307 109.857451 356.951936C94.503083 373.564843 69.678976 373.640875 54.171477 356.862336 38.771371 340.199979 38.919723 313.024384 54.088661 296.612139L300.429653 30.080299C300.477653 30.028331 300.530816 29.981909 300.589013 29.940864 305.973291 12.590933 322.075733 0 341.333333 0 364.897493 0 384 19.092011 384 42.69632L384 981.30368C384 1004.884224 365.06176 1024 341.333333 1024 317.769173 1024 298.666667 1004.907989 298.666667 981.30368L298.666667 152.667307 298.666667 152.667307 298.666667 152.667307Z" fill="#bfbfbf" p-id="974"></path></svg>