<?xml version="1.0" standalone="no"?><!DOCTYPE svg PUBLIC "-//W3C//DTD SVG 1.1//EN" "http://www.w3.org/Graphics/SVG/1.1/DTD/svg11.dtd"><svg t="1538645786359" class="icon" style="" viewBox="0 0 1024 1024" version="1.1" xmlns="http://www.w3.org/2000/svg" p-id="2498" xmlns:xlink="http://www.w3.org/1999/xlink" width="32" height="32"><defs><style type="text/css"></style></defs><path d="M539.479254 826.183773c-170.035948 0-308.249286-138.299345-308.249286-308.249286 0-170.035948 138.299345-308.249286 308.249286-308.249286 170.035948 0 308.249286 138.299345 308.249286 308.249286 0.086007 169.949941-138.213338 308.249286-308.249286 308.249286z m0-572.376953c-145.609945 0-264.04166 118.431715-264.04166 264.04166s118.431715 264.04166 264.04166 264.041659 264.04166-118.431715 264.04166-264.041659-118.431715-264.04166-264.04166-264.04166z m0 0" p-id="2499" fill="#595959"></path><path d="M687.411389 436.05577c-8.600706-8.600706-22.619856-8.514698-31.134554 0.172014L495.78767 598.523098 424.745842 525.503108c-8.514698-8.77272-22.447841-8.858727-31.134554-0.430036-8.686713 8.514698-8.944734 22.447841-0.430035 31.134554l86.695112 89.10331 0.172014 0.172014c0.086007 0.086007 0.086007 0.172014 0.086007 0.172014 1.376113 1.376113 3.096254 2.236183 4.730388 3.096254 0.860071 0.430035 1.548127 1.204099 2.408198 1.548127 2.666219 1.118092 5.504452 1.634134 8.342684 1.634134 2.838233 0 5.590459-0.516042 8.256677-1.634134 0.860071-0.344028 1.548127-1.032085 2.322191-1.46212 1.634134-0.946078 3.354275-1.720141 4.816395-3.096254 0.086007 0 0.086007-0.172014 0.172014-0.172014l0.172014-0.172014 176.314463-178.206619c8.514698-8.600706 8.428691-22.533848-0.258021-31.134554z m0 0" p-id="2500" fill="#595959"></path></svg>