<?xml version="1.0" standalone="no"?><!DOCTYPE svg PUBLIC "-//W3C//DTD SVG 1.1//EN" "http://www.w3.org/Graphics/SVG/1.1/DTD/svg11.dtd"><svg t="1538403056552" class="icon" style="" viewBox="0 0 1024 1024" version="1.1" xmlns="http://www.w3.org/2000/svg" p-id="5558" xmlns:xlink="http://www.w3.org/1999/xlink" width="32" height="32"><defs><style type="text/css"></style></defs><path d="M845.016 418.76l-207.789-20.088c-15.904-1.467-19.46-3.975-24.483-16.533l-88.932-192.933c-8.161-16.322-21.343-16.322-29.506 0l-94.791 192.933c-6.486 10.672-9.416 13.184-25.114 14.65l-201.304 22.182c-18.414 1.886-22.599 13.603-9.21 26.157l157.985 142.085c7.532 6.904 7.532 9.627 5.442 19.042l-40.594 208.419c-3.347 17.994 6.904 25.114 23.019 15.904l180.169-101.908c12.764-7.74 24.274-7.954 36.828-0.417l181.214 102.325c16.111 8.997 26.576 1.886 23.227-15.904l-30.968-166.358c18.625-6.068 36.62-13.603 47.29-22.182l-4.395 0.837c-64.031 15.067-152.337 23.854-233.947 23.854-30.135 0-59.428-1.046-87.466-2.929h-0.212c-24.694-1.675-48.337-3.975-70.937-7.116-8.371-1.255 0.63-6.695 0.63-6.695l217.627-151.083c0 0 5.653-3.557 0-4.185-89.35-13.603-188.122-17.159-281.238-17.159-2.090 0-4.185 0-6.486 0 62.777-14.017 141.874-22.389 227.878-22.389 50.64 0 98.978 2.929 143.133 8.161 0 0 24.902 3.347 36.828 5.233 9.21 1.255 0.63 6.486 0.63 6.486l-217.417 147.525c0 0-5.023 2.929 0.417 3.766 66.962 9.21 149.41 12.557 223.485 13.394l-3.347-17.785c-1.675-10.252 0-14.017 7.954-21.343l153.385-140.203c13.603-12.344 9.627-24.065-8.997-25.737z" p-id="5559" fill="#cdcdcd"></path><path d="M509.153 1.087c-278.098 0-504.513 226.205-504.513 504.513 0 278.098 226.205 504.513 504.513 504.513 278.098 0 504.513-226.205 504.513-504.513 0-278.098-226.414-504.513-504.513-504.513zM509.153 992.538c-268.475 0-486.937-218.46-486.937-486.937s218.46-486.937 486.937-486.937c268.475 0 486.937 218.46 486.937 486.937s-218.46 486.937-486.937 486.937z" p-id="5560" fill="#cdcdcd"></path></svg>