<?xml version="1.0" standalone="no"?><!DOCTYPE svg PUBLIC "-//W3C//DTD SVG 1.1//EN" "http://www.w3.org/Graphics/SVG/1.1/DTD/svg11.dtd"><svg t="1538402853543" class="icon" style="" viewBox="0 0 1024 1024" version="1.1" xmlns="http://www.w3.org/2000/svg" p-id="3137" id="mx_n_1538402853550" data-spm-anchor-id="a313x.7781069.0.i8" xmlns:xlink="http://www.w3.org/1999/xlink" width="32" height="32"><defs><style type="text/css"></style></defs><path d="M511.5 1011.2C444 1011.2 378.6 998 317 972c-59.5-25.2-112.9-61.2-158.8-107-45.9-45.9-81.9-99.3-107-158.8-26-61.6-39.2-127-39.2-194.4S25.2 379 51.3 317.4c25.2-59.5 61.2-112.9 107-158.8 45.9-45.9 99.3-81.9 158.8-107 61.6-26.1 127-39.3 194.4-39.3s132.8 13.2 194.4 39.3c59.5 25.2 112.9 61.2 158.8 107 45.9 45.9 81.9 99.3 107 158.8 26.1 61.6 39.3 127 39.3 194.4s-13.2 132.8-39.3 194.4c-25.2 59.5-61.2 112.9-107 158.8s-99.3 81.9-158.8 107c-61.6 26-127 39.2-194.4 39.2z m0-949c-60.7 0-119.6 11.9-175 35.3-53.5 22.6-101.6 55.1-142.9 96.3-41.3 41.3-73.7 89.4-96.3 142.9C73.8 392.2 62 451.1 62 511.8c0 60.7 11.9 119.6 35.3 175 22.6 53.5 55.1 101.6 96.3 142.9C234.9 871 283 903.4 336.5 926c55.4 23.4 114.3 35.3 175 35.3s119.6-11.9 175-35.3c53.5-22.6 101.6-55.1 142.9-96.3s73.7-89.4 96.3-142.9c23.4-55.4 35.3-114.3 35.3-175s-11.9-119.6-35.3-175c-22.6-53.5-55.1-101.6-96.3-142.9-41.3-41.3-89.4-73.7-142.9-96.3-55.5-23.5-114.3-35.4-175-35.4z" fill="#cdcdcd" p-id="3138" data-spm-anchor-id="a313x.7781069.0.i9" class=""></path><path d="M551 563.1c-17.2 0-31.2-14-31.2-31.3 0-17.2 14-31.2 31.2-31.2s31.2 13.9 31.3 31.1c0 17.3-14 31.3-31.3 31.4z m247.1 22.3c0-80.4-72.5-146.2-164.3-151.8-4.3-0.2-8.6-0.4-12.9-0.4-97.9 0-177.2 68.1-177.2 152.2 0 12.4 1.8 24.7 5.3 36.6 19 66.3 88.8 115.6 172 115.6 27 0.1 53.8-5.3 78.7-15.8l39.8 26.8s10.6 7.2 9.6-6.8l-11.3-42.1c37-26.3 59.4-68.8 60.3-114.3zM620.9 420.5c3.8 0 7.5 0.2 11.3 0.4-14.6-85.1-99.9-150.4-203-150.4-113.3 0-205.2 79-205.2 176.2 1.1 54.3 28.5 104.6 73.4 135l-15.2 56.4s-5.2 18.7 14.4 10.4l56.5-38.1c24.5 8.4 50.1 12.6 76 12.6 2.3 0 4.5-0.2 6.8-0.2-3.3-12.2-5-24.7-5-37.4 0-90.9 85.3-164.9 190-164.9z m81 142.5c-17.2 0-31.2-14-31.2-31.3 0-17.2 14-31.2 31.3-31.2 17.2 0 31.2 14 31.2 31.2 0 8.3-3.3 16.2-9.2 22.1-5.8 5.9-13.8 9.2-22.1 9.2zM333 422.6c-17.2 0-31.2-14-31.2-31.3 0-17.2 14-31.2 31.2-31.2s31.2 13.9 31.3 31.1c0 8.3-3.3 16.3-9.1 22.2-5.9 5.9-13.9 9.2-22.2 9.2z m185.3 0c-17.2 0-31.2-14-31.2-31.3 0-17.2 14-31.2 31.2-31.2s31.2 13.9 31.3 31.1c0 17.3-14 31.3-31.3 31.4z m0 0" fill="#cdcdcd" p-id="3139"></path></svg>