<?xml version="1.0" standalone="no"?><!DOCTYPE svg PUBLIC "-//W3C//DTD SVG 1.1//EN" "http://www.w3.org/Graphics/SVG/1.1/DTD/svg11.dtd"><svg t="1538403011487" class="icon" style="" viewBox="0 0 1024 1024" version="1.1" xmlns="http://www.w3.org/2000/svg" p-id="4313" xmlns:xlink="http://www.w3.org/1999/xlink" width="32" height="32"><defs><style type="text/css"></style></defs><path d="M669.8496 519.8848c-24.6784-4.7616-12.6976-18.0224-12.6976-18.0224s24.1664-39.8336-4.7616-68.7104c-35.84-35.84-122.88 4.5568-122.88 4.5568-33.28 10.24-24.4736-4.6592-19.7632-30.3104 0-30.1568-10.24-81.152-99.0208-51.2S245.76 492.7488 245.76 492.7488c-52.8896 70.5536-46.08 125.0816-46.08 125.0816 13.2096 120.32 141.1584 153.6 240.64 161.28 104.7552 8.192 246.016-36.096 288.8704-127.0272s-34.6112-127.3344-59.3408-132.1984z m-221.3376 225.28c-103.8848 5.12-187.9552-47.2064-187.9552-116.5824S344.576 503.4496 448.512 498.6368s188.2112 38.0416 188.2112 107.52-84.1728 134.1952-188.2112 138.9568z m188.672-501.1456a25.8304 25.8304 0 0 0 0 51.6608 135.4752 135.4752 0 0 1 135.3216 135.2704 139.008 139.008 0 0 1-2.2528 24.7296h0.256c0 0.9728-0.256 1.9456-0.256 2.9184a25.6 25.6 0 0 0 50.7904 6.4 25.6 25.6 0 0 0 0.8192-6.0928 185.856 185.856 0 0 0-184.7296-215.04z m-209.408 300.4416c-104.5504 12.2368-92.416 110.1312-92.416 110.1312A54.1184 54.1184 0 0 0 363.52 701.44c61.1328 33.1264 124.16 13.056 155.9552-28.0064S532.48 532.48 427.7248 544.3584z m-26.368 137.2672c-19.5072 2.304-35.2256-8.96-35.2256-25.2928a37.3248 37.3248 0 0 1 33.4848-35.2768c22.4256-2.1504 37.0176 10.752 37.0176 27.0848s-15.872 31.2832-35.2768 33.4848z m61.44-52.4288c-6.656 5.12-14.7456 4.1984-18.2272-1.6896a15.36 15.36 0 0 1 4.4032-19.9168c7.7312-5.7344 15.7696-4.1472 19.3024 1.6896a16.2816 16.2816 0 0 1-5.12 19.9168z m174.08-302.08a21.6064 21.6064 0 0 0 0 43.1616 60.6208 60.6208 0 0 1 60.7232 60.5184 56.0128 56.0128 0 0 1-0.512 7.7312h0.512c0 0.8192-0.512 1.5872-0.512 2.5088a21.6064 21.6064 0 0 0 21.6064 21.6064 21.2992 21.2992 0 0 0 20.9408-18.7392v-1.4848c0-0.5632 0.256-0.768 0.256-1.28v-0.6144c0.256-3.2256 0.6144-6.4 0.6144-9.728A103.68 103.68 0 0 0 637.1328 327.68zM512 0a512 512 0 1 0 512 512A512 512 0 0 0 512 0z m0 994.8672A482.8672 482.8672 0 1 1 994.8672 512 483.4304 483.4304 0 0 1 512 994.8672z" fill="#A0A0A0" p-id="4314"></path></svg>